<?xml version="1.0" encoding="UTF-8"?>
<svg id="Layer_1" xmlns="http://www.w3.org/2000/svg" version="1.1" viewBox="0 0 253 228">
  <!-- Generator: Adobe Illustrator 30.2.1, SVG Export Plug-In . SVG Version: 2.1.1 Build 1)  -->
  <defs>
    <style>
      .st0 {
        fill: #186d3a;
      }

      .st1 {
        fill: none;
        stroke: #186d3a;
        stroke-linecap: round;
        stroke-width: 8px;
      }
    </style>
  </defs>
  <line class="st1" x1="392.5" y1="-317" x2="327.5" y2="-232"/>
  <line class="st1" x1="392.5" y1="-317" x2="457.5" y2="-232"/>
  <line class="st1" x1="327.5" y1="-232" x2="295" y2="-147"/>
  <line class="st1" x1="327.5" y1="-232" x2="360" y2="-147"/>
  <line class="st1" x1="457.5" y1="-232" x2="425" y2="-147"/>
  <line class="st1" x1="457.5" y1="-232" x2="490" y2="-147"/>
  <circle class="st0" cx="392.5" cy="-317" r="19"/>
  <circle class="st0" cx="327.5" cy="-232" r="19"/>
  <circle class="st0" cx="457.5" cy="-232" r="19"/>
  <circle class="st0" cx="295" cy="-147" r="19"/>
  <circle class="st0" cx="360" cy="-147" r="19"/>
  <circle class="st0" cx="425" cy="-147" r="19"/>
  <circle class="st0" cx="490" cy="-147" r="19"/>
  <line class="st1" x1="126.5" y1="29" x2="61.5" y2="114"/>
  <line class="st1" x1="126.5" y1="29" x2="191.5" y2="114"/>
  <line class="st1" x1="61.5" y1="114" x2="29" y2="199"/>
  <line class="st1" x1="61.5" y1="114" x2="94" y2="199"/>
  <line class="st1" x1="191.5" y1="114" x2="159" y2="199"/>
  <line class="st1" x1="191.5" y1="114" x2="224" y2="199"/>
  <circle class="st0" cx="126.5" cy="29" r="19"/>
  <circle class="st0" cx="61.5" cy="114" r="19"/>
  <circle class="st0" cx="191.5" cy="114" r="19"/>
  <circle class="st0" cx="29" cy="199" r="19"/>
  <circle class="st0" cx="94" cy="199" r="19"/>
  <circle class="st0" cx="159" cy="199" r="19"/>
  <circle class="st0" cx="224" cy="199" r="19"/>
  <line class="st1" x1="-440.5" y1="-442" x2="-505.5" y2="-357"/>
  <line class="st1" x1="-440.5" y1="-442" x2="-375.5" y2="-357"/>
  <line class="st1" x1="-505.5" y1="-357" x2="-538" y2="-272"/>
  <line class="st1" x1="-505.5" y1="-357" x2="-473" y2="-272"/>
  <line class="st1" x1="-375.5" y1="-357" x2="-408" y2="-272"/>
  <line class="st1" x1="-375.5" y1="-357" x2="-343" y2="-272"/>
  <circle class="st0" cx="-440.5" cy="-442" r="19"/>
  <circle class="st0" cx="-505.5" cy="-357" r="19"/>
  <circle class="st0" cx="-375.5" cy="-357" r="19"/>
  <circle class="st0" cx="-538" cy="-272" r="19"/>
  <circle class="st0" cx="-473" cy="-272" r="19"/>
  <circle class="st0" cx="-408" cy="-272" r="19"/>
  <circle class="st0" cx="-343" cy="-272" r="19"/>
  <line class="st1" x1="86.5" y1="-351" x2="21.5" y2="-266"/>
  <line class="st1" x1="86.5" y1="-351" x2="151.5" y2="-266"/>
  <line class="st1" x1="21.5" y1="-266" x2="-11" y2="-181"/>
  <line class="st1" x1="21.5" y1="-266" x2="54" y2="-181"/>
  <line class="st1" x1="151.5" y1="-266" x2="119" y2="-181"/>
  <line class="st1" x1="151.5" y1="-266" x2="184" y2="-181"/>
  <circle class="st0" cx="86.5" cy="-351" r="19"/>
  <circle class="st0" cx="21.5" cy="-266" r="19"/>
  <circle class="st0" cx="151.5" cy="-266" r="19"/>
  <circle class="st0" cx="-11" cy="-181" r="19"/>
  <circle class="st0" cx="54" cy="-181" r="19"/>
  <circle class="st0" cx="119" cy="-181" r="19"/>
  <circle class="st0" cx="184" cy="-181" r="19"/>
  <line class="st1" x1="-238.5" y1="-79" x2="-303.5" y2="6"/>
  <line class="st1" x1="-238.5" y1="-79" x2="-173.5" y2="6"/>
  <line class="st1" x1="-303.5" y1="6" x2="-336" y2="91"/>
  <line class="st1" x1="-303.5" y1="6" x2="-271" y2="91"/>
  <line class="st1" x1="-173.5" y1="6" x2="-206" y2="91"/>
  <line class="st1" x1="-173.5" y1="6" x2="-141" y2="91"/>
  <circle class="st0" cx="-238.5" cy="-79" r="19"/>
  <circle class="st0" cx="-303.5" cy="6" r="19"/>
  <circle class="st0" cx="-173.5" cy="6" r="19"/>
  <circle class="st0" cx="-336" cy="91" r="19"/>
  <circle class="st0" cx="-271" cy="91" r="19"/>
  <circle class="st0" cx="-206" cy="91" r="19"/>
  <circle class="st0" cx="-141" cy="91" r="19"/>
</svg>